<svg width="22" height="22" viewBox="0 0 22 22" fill="none" xmlns="http://www.w3.org/2000/svg">
<path d="M21.2045 6.37968C21.1527 5.24772 20.9729 4.47469 20.71 3.79837C20.4431 3.08879 20.0245 2.44605 19.4835 1.9148C18.9524 1.37381 18.3095 0.955 17.5999 0.687912C16.9234 0.425205 16.1506 0.245578 15.0186 0.19414C13.8845 0.142215 13.5222 0.129883 10.6342 0.129883C7.74621 0.129883 7.38387 0.142215 6.2498 0.193815C5.11784 0.245578 4.34497 0.425367 3.66849 0.688237C2.9589 0.955163 2.31617 1.37381 1.78492 1.9148C1.24392 2.44589 0.825118 3.08862 0.558029 3.79821C0.295322 4.47469 0.115695 5.24772 0.064257 6.37952C0.0123321 7.51375 0 7.87593 0 10.7639C0 13.6521 0.0123321 14.0144 0.064257 15.1485C0.115857 16.2803 0.295647 17.0533 0.558516 17.7298C0.825442 18.4392 1.24409 19.0821 1.78508 19.6132C2.31617 20.1542 2.95907 20.5728 3.66865 20.8398C4.34497 21.1028 5.118 21.2824 6.24996 21.3342C7.38419 21.386 7.74637 21.3981 10.6344 21.3981C13.5224 21.3981 13.8847 21.386 15.0188 21.3342C16.1507 21.2824 16.9236 21.1028 17.6001 20.8398C19.0285 20.2874 20.1577 19.1582 20.71 17.7298C20.9731 17.0533 21.1527 16.2803 21.2045 15.1485C21.2561 14.0143 21.2684 13.6521 21.2684 10.7641C21.2684 7.87593 21.2561 7.51375 21.2045 6.37968ZM19.2902 15.0613C19.243 16.0982 19.0697 16.6613 18.9242 17.0359C18.5664 17.9635 17.8334 18.6964 16.9059 19.0542C16.5312 19.1998 15.9682 19.3731 14.9313 19.4203C13.8102 19.4715 13.4738 19.4823 10.6342 19.4823C7.7944 19.4823 7.45819 19.4715 6.33694 19.4203C5.30022 19.3731 4.73717 19.1998 4.36233 19.0542C3.90053 18.8837 3.48269 18.6119 3.13967 18.2586C2.78642 17.9156 2.51462 17.4979 2.34408 17.0359C2.19853 16.6613 2.02523 16.0982 1.97801 15.0613C1.9269 13.9401 1.91603 13.6037 1.91603 10.7642C1.91603 7.92461 1.9269 7.58839 1.97801 6.46698C2.02539 5.43011 2.19853 4.86705 2.34408 4.49238C2.51462 4.03041 2.78658 3.61258 3.13967 3.26955C3.48269 2.9163 3.90053 2.6445 4.3625 2.47413C4.73717 2.32841 5.30022 2.15527 6.3371 2.10789C7.45835 2.05678 7.79473 2.04591 10.6342 2.04591H10.634C13.4735 2.04591 13.8099 2.05678 14.9313 2.10806C15.9682 2.15527 16.5311 2.32857 16.9059 2.47413C17.3677 2.64467 17.7855 2.91646 18.1286 3.26955C18.4818 3.61258 18.7536 4.03041 18.924 4.49238C19.0697 4.86705 19.243 5.43011 19.2902 6.46698C19.3413 7.58823 19.3522 7.92461 19.3522 10.7641C19.3522 13.6037 19.3415 13.9399 19.2902 15.0613Z" fill="url(#paint0_linear)"/>
<path d="M10.6345 5.30334C7.61868 5.30334 5.17383 7.74835 5.17383 10.7642C5.17383 13.7801 7.61868 16.2249 10.6345 16.2249C13.6506 16.2249 16.0954 13.7801 16.0954 10.7642C16.0954 7.74835 13.6506 5.30334 10.6345 5.30334ZM10.6345 14.3089C8.67697 14.3087 7.08985 12.7218 7.09002 10.764C7.09002 8.80648 8.67697 7.21937 10.6347 7.21937C12.5924 7.21953 14.1794 8.80648 14.1794 10.764C14.1794 12.7218 12.5923 14.3089 10.6345 14.3089Z" fill="url(#paint1_linear)"/>
<path d="M17.5869 5.08774C17.5869 5.79245 17.0156 6.36379 16.3109 6.36379C15.606 6.36379 15.0347 5.79245 15.0347 5.08774C15.0347 4.38286 15.606 3.81152 16.3109 3.81152C17.0156 3.81152 17.5869 4.38286 17.5869 5.08774Z" fill="url(#paint2_linear)"/>
<defs>
<linearGradient id="paint0_linear" x1="1.78481" y1="19.6133" x2="19.4836" y2="1.91452" gradientUnits="userSpaceOnUse">
<stop stop-color="#FFD600"/>
<stop offset="0.5" stop-color="#FF0100"/>
<stop offset="1" stop-color="#D800B9"/>
</linearGradient>
<linearGradient id="paint1_linear" x1="6.77328" y1="14.6255" x2="14.496" y2="6.90279" gradientUnits="userSpaceOnUse">
<stop stop-color="#FF6400"/>
<stop offset="0.5" stop-color="#FF0100"/>
<stop offset="1" stop-color="#FD0056"/>
</linearGradient>
<linearGradient id="paint2_linear" x1="15.4085" y1="5.98998" x2="17.2131" y2="4.18534" gradientUnits="userSpaceOnUse">
<stop stop-color="#F30072"/>
<stop offset="1" stop-color="#E50097"/>
</linearGradient>
</defs>
</svg>
