<svg width="27" height="27" viewBox="0 0 27 27" fill="none" xmlns="http://www.w3.org/2000/svg">
<path d="M18.9435 0H8.37917C4.08573 0 0.592773 3.49296 0.592773 7.7864V18.3507C0.592773 22.6442 4.08573 26.1371 8.37917 26.1371H18.9435C23.237 26.1371 26.7299 22.6442 26.7299 18.3507V7.7864C26.7299 3.49296 23.2369 0 18.9435 0ZM24.1005 18.3507C24.1005 21.1989 21.7916 23.5077 18.9435 23.5077H8.37917C5.53106 23.5077 3.22217 21.1989 3.22217 18.3507V7.7864C3.22217 4.93824 5.53106 2.6294 8.37917 2.6294H18.9435C21.7916 2.6294 24.1005 4.93824 24.1005 7.7864V18.3507Z" fill="#9D9D9D"/>
<path d="M13.6614 6.30853C9.93389 6.30853 6.90137 9.34106 6.90137 13.0685C6.90137 16.7959 9.93389 19.8285 13.6614 19.8285C17.3888 19.8285 20.4214 16.7959 20.4214 13.0685C20.4214 9.34101 17.3888 6.30853 13.6614 6.30853ZM13.6614 17.1991C11.3801 17.1991 9.53076 15.3498 9.53076 13.0685C9.53076 10.7872 11.3801 8.93793 13.6614 8.93793C15.9426 8.93793 17.792 10.7872 17.792 13.0685C17.792 15.3498 15.9426 17.1991 13.6614 17.1991Z" fill="#9D9D9D"/>
<path d="M20.4343 7.97923C21.3289 7.97923 22.0541 7.25401 22.0541 6.3594C22.0541 5.46479 21.3289 4.73956 20.4343 4.73956C19.5397 4.73956 18.8145 5.46479 18.8145 6.3594C18.8145 7.25401 19.5397 7.97923 20.4343 7.97923Z" fill="#9D9D9D"/>
</svg>
