<svg width="11" height="14" viewBox="0 0 11 14" fill="none" xmlns="http://www.w3.org/2000/svg">
<path d="M5.60483 0C2.92137 0 0.738281 2.18309 0.738281 4.86655C0.738281 6.09926 1.51501 7.84096 3.047 10.0433C4.16676 11.6532 5.26808 12.899 5.31448 12.9513L5.60483 13.2787L5.89528 12.9513C5.94158 12.899 7.0429 11.6532 8.16276 10.0433C9.69464 7.84096 10.4715 6.09926 10.4715 4.86655C10.4715 2.18309 8.28828 0 5.60483 0ZM7.52968 9.59369C6.77281 10.6826 6.00783 11.6197 5.60483 12.0977C5.20284 11.621 4.44069 10.6874 3.68433 9.59997C2.2649 7.55942 1.51461 5.92258 1.51461 4.86655C1.51461 2.61122 3.3495 0.776325 5.60483 0.776325C7.86025 0.776325 9.69505 2.61122 9.69505 4.86655C9.69505 5.92147 8.94628 7.55608 7.52968 9.59369Z" fill="black"/>
<path d="M5.60461 1.79852C4.02086 1.79852 2.73242 3.08696 2.73242 4.67071C2.73242 6.25447 4.02086 7.543 5.60461 7.543C7.18847 7.543 8.47691 6.25447 8.47691 4.67071C8.47691 3.08696 7.18847 1.79852 5.60461 1.79852ZM5.60461 6.76668C4.44899 6.76668 3.50875 5.82644 3.50875 4.67071C3.50875 3.51509 4.44899 2.57485 5.60461 2.57485C6.76034 2.57485 7.70058 3.51509 7.70058 4.67071C7.70058 5.82644 6.76034 6.76668 5.60461 6.76668Z" fill="black"/>
</svg>
