<svg width="22" height="22" viewBox="0 0 22 22" fill="none" xmlns="http://www.w3.org/2000/svg">
<path fill-rule="evenodd" clip-rule="evenodd" d="M18.2298 3.67457C16.2239 1.66626 13.5561 0.559772 10.7141 0.558594C4.8577 0.558594 0.0914769 5.32469 0.0891213 11.1826C0.0883361 13.0552 0.577522 14.8832 1.50734 16.4944L0 22.0001L5.63244 20.5226C7.18441 21.3691 8.93163 21.8153 10.7097 21.8158H10.7142C16.5699 21.8158 21.3366 17.0493 21.3389 11.1911C21.34 8.35206 20.2359 5.68274 18.2298 3.67457ZM10.7141 20.0215H10.7104C9.12584 20.0208 7.57178 19.595 6.21572 18.7905L5.89339 18.5991L2.55102 19.4759L3.44314 16.2171L3.2331 15.883C2.34909 14.477 1.88228 12.8518 1.88306 11.1833C1.8849 6.31431 5.84654 2.35306 10.7176 2.35306C13.0764 2.35385 15.2937 3.27359 16.9609 4.94281C18.6282 6.61204 19.5458 8.83078 19.545 11.1905C19.543 16.0598 15.5816 20.0215 10.7141 20.0215ZM15.558 13.4075C15.2926 13.2745 13.9873 12.6325 13.7439 12.5438C13.5008 12.4552 13.3236 12.4111 13.1468 12.6767C12.9697 12.9424 12.461 13.5405 12.3061 13.7175C12.1511 13.8947 11.9964 13.917 11.7309 13.784C11.4654 13.6512 10.61 13.3707 9.59592 12.4663C8.80678 11.7624 8.27402 10.893 8.11907 10.6273C7.96438 10.3614 8.11776 10.2316 8.23554 10.0855C8.52293 9.72867 8.81071 9.35451 8.89917 9.17745C8.98777 9.00025 8.94341 8.84517 8.87693 8.71234C8.81071 8.57951 8.27977 7.27279 8.05861 6.74107C7.84294 6.22362 7.62426 6.2935 7.46119 6.28539C7.30651 6.27767 7.12944 6.2761 6.95238 6.2761C6.77544 6.2761 6.4878 6.34245 6.24438 6.60837C6.0011 6.87417 5.31535 7.51634 5.31535 8.82306C5.31535 10.1298 6.26663 11.3921 6.39933 11.5693C6.53203 11.7465 8.2714 14.428 10.9344 15.5778C11.5678 15.8516 12.0623 16.0148 12.4479 16.1372C13.0839 16.3392 13.6625 16.3107 14.12 16.2424C14.6302 16.1661 15.6906 15.6001 15.912 14.98C16.1332 14.3598 16.1332 13.8284 16.0667 13.7175C16.0005 13.6068 15.8234 13.5405 15.558 13.4075Z" fill="#00E676"/>
</svg>
