<svg width="27" height="27" viewBox="0 0 27 27" fill="none" xmlns="http://www.w3.org/2000/svg">
<path fill-rule="evenodd" clip-rule="evenodd" d="M22.9558 3.92377C20.4298 1.39482 17.0704 0.00148315 13.4916 0C6.11702 0 0.115192 6.00167 0.112225 13.3782C0.111237 15.7363 0.72724 18.0381 1.89811 20.0671L0 27L7.09261 25.1395C9.04691 26.2055 11.2471 26.7673 13.4862 26.768H13.4918C20.8655 26.768 26.868 20.7658 26.8708 13.3889C26.8723 9.81387 25.4819 6.45255 22.9558 3.92377ZM13.4916 24.5085H13.487C11.4916 24.5076 9.5347 23.9714 7.8271 22.9584L7.42121 22.7173L3.21235 23.8214L4.33575 19.7179L4.07126 19.2972C2.95807 17.5266 2.37025 15.4802 2.37123 13.379C2.37354 7.24785 7.36221 2.25967 13.496 2.25967C16.4663 2.26066 19.2584 3.41884 21.3579 5.52079C23.4574 7.62275 24.6129 10.4167 24.612 13.3881C24.6093 19.5198 19.621 24.5085 13.4916 24.5085ZM19.5913 16.1799C19.2571 16.0125 17.6134 15.204 17.3069 15.0922C17.0007 14.9807 16.7776 14.9251 16.555 15.2597C16.332 15.5942 15.6914 16.3473 15.4963 16.5703C15.3012 16.7934 15.1064 16.8214 14.7721 16.654C14.4377 16.4867 13.3606 16.1336 12.0836 14.9947C11.0899 14.1083 10.419 13.0135 10.2239 12.679C10.0291 12.3441 10.2222 12.1807 10.3705 11.9967C10.7324 11.5473 11.0948 11.0762 11.2062 10.8532C11.3178 10.6301 11.2619 10.4348 11.1782 10.2675C11.0948 10.1003 10.4262 8.4548 10.1477 7.78524C9.87616 7.13364 9.60079 7.22164 9.39545 7.21143C9.20066 7.2017 8.9777 7.19973 8.75473 7.19973C8.53193 7.19973 8.16971 7.28328 7.86319 7.61814C7.55684 7.95284 6.69331 8.76149 6.69331 10.407C6.69331 12.0524 7.8912 13.6421 8.05831 13.8652C8.22541 14.0883 10.4157 17.465 13.7691 18.9129C14.5667 19.2576 15.1893 19.4631 15.675 19.6172C16.4759 19.8716 17.2044 19.8357 17.7805 19.7497C18.4229 19.6536 19.7583 18.9409 20.0371 18.1601C20.3156 17.3791 20.3156 16.7099 20.2319 16.5703C20.1485 16.4309 19.9255 16.3473 19.5913 16.1799Z" fill="#9D9D9D"/>
</svg>
