<svg width="84" height="64" viewBox="0 0 84 64" fill="none" xmlns="http://www.w3.org/2000/svg">
<path d="M2.72846 49.7644L13.1549 49.753L12.7775 58.0347L2.11077 57.9832L1.22998 60.1737L12.6802 60.2252L12.6288 61.3062L14.8193 61.4034L15.4027 48.6491L15.9803 47.551L1.95063 47.5739L2.72846 49.7644Z" fill="url(#paint0_linear)"/>
<path d="M32.8584 46.1383L31.7718 47.2936L32.6068 48.0772L20.0413 48.0943L20.8191 50.2849L31.2456 50.2734L30.8795 58.3206L20.4531 58.2749L19.5723 60.4654L30.7766 60.5112L30.7194 61.8266L32.9099 61.9239L33.4876 49.1696L33.5791 48.998L34.3741 49.7415L35.6838 48.3517L32.8584 46.1383Z" fill="url(#paint1_linear)"/>
<path d="M36.6845 45.4749L34.4425 42.5695L33.0298 43.862L35.4948 46.5616L36.6845 45.4749Z" fill="url(#paint2_linear)"/>
<path d="M40.7229 51.7892L41.0832 47.3452L38.927 46.7847L37.623 62.9592L37.1426 63.7027L39.7506 63.9143L40.5456 54.0083C44.1145 54.7919 46.3966 56.9824 47.346 58.1377C47.346 58.1377 47.4146 58.8298 47.4432 58.8812L48.6729 58.1835L47.7063 58.7097L49.6338 57.663C49.5308 57.4514 47.0314 52.9845 40.7229 51.7892Z" fill="url(#paint3_linear)"/>
<path d="M60.7348 50.4393C62.5307 50.1991 64.4867 49.6786 66.4542 48.7063L65.0587 46.939C58.8874 49.976 53.4711 47.8369 53.4139 47.8141L52.3616 49.7873C52.516 49.8387 54.615 50.5422 57.6349 50.6051C57.9266 50.6109 58.2297 50.6109 58.5328 50.6051C58.5042 51.5145 58.4356 52.3495 58.3326 53.1217L50.2969 52.6527L50.9718 54.889L57.898 55.295C56.8627 59.1785 54.8266 60.86 53.6885 61.5178L52.7677 61.5978L53.1852 62.9476L53.4883 64C53.7342 63.9256 58.4184 62.4729 60.1228 55.4209L65.8708 55.7583L66.6429 53.6078L60.5232 53.2532C60.6433 52.3839 60.7176 51.4516 60.7348 50.4393Z" fill="url(#paint4_linear)"/>
<path d="M82.3312 54.0312L76.1943 55.2037L75.2734 51.5547L79.706 50.2164L79.0711 48.1173L74.7301 49.4271L74.0953 46.9163L71.939 47.3281L72.6311 50.0619L67.9469 51.4746L68.5817 53.5736L73.1687 52.1895L74.0381 55.6155L67.8325 56.8051L67.6323 59.0757L74.5757 57.7488L75.8397 62.7418L75.6395 63.7828L78.2018 63.1365L76.7376 57.337L83.3035 56.0787L82.3312 54.0312Z" fill="url(#paint5_linear)"/>
<path d="M4.1694 15.065H1.19531V0.188782H4.17512V7.62973L9.71722 0.188782H13.0974L8.39604 6.46297L13.0974 15.065H9.71722L6.44572 9.04814L4.17512 12.0909V15.065H4.1694Z" fill="black"/>
<path d="M30.2672 7.68688C30.2672 8.39036 30.1757 9.07097 29.9926 9.72871C29.8096 10.3807 29.5522 10.9927 29.2205 11.5646C28.8888 12.1366 28.4884 12.657 28.0194 13.126C27.5505 13.595 27.03 14.0011 26.4638 14.3328C25.8975 14.6646 25.2856 14.9276 24.6278 15.1107C23.9701 15.2937 23.2895 15.3852 22.586 15.3852C21.8825 15.3852 21.2019 15.2937 20.5442 15.1107C19.8922 14.9276 19.2802 14.6703 18.7083 14.3328C18.1363 13.9954 17.6158 13.595 17.1469 13.126C16.6779 12.657 16.2718 12.1366 15.9401 11.5646C15.6083 10.9927 15.3452 10.3807 15.1622 9.72871C14.9792 9.07669 14.8877 8.39608 14.8877 7.68688C14.8877 6.97767 14.9792 6.29706 15.1622 5.64505C15.3452 4.98732 15.6026 4.37534 15.9401 3.80912C16.2775 3.2429 16.6779 2.72244 17.1469 2.25345C17.6158 1.78445 18.1363 1.3841 18.7083 1.05237C19.2802 0.720645 19.8922 0.463272 20.5442 0.280251C21.1962 0.0972299 21.8711 0 22.5803 0C23.2838 0 23.9701 0.0915105 24.6221 0.274531C25.2741 0.457552 25.8918 0.714925 26.458 1.04665C27.0243 1.37838 27.5447 1.77873 28.0137 2.24773C28.4827 2.71672 28.8831 3.23718 29.2148 3.8034C29.5465 4.36962 29.8039 4.9816 29.9869 5.63933C30.1757 6.30278 30.2672 6.98339 30.2672 7.68688ZM27.3102 7.68688C27.3102 7.03487 27.1844 6.42289 26.9385 5.84523C26.6868 5.26757 26.3494 4.76426 25.9261 4.34103C25.5029 3.91779 24.9996 3.58035 24.4219 3.32869C23.8443 3.07704 23.2323 2.95693 22.5803 2.95693C21.9226 2.95693 21.3049 3.08276 20.7329 3.32869C20.161 3.58035 19.6577 3.91779 19.2287 4.34103C18.7998 4.76426 18.4623 5.26757 18.2107 5.84523C17.959 6.42289 17.8389 7.03487 17.8389 7.68688C17.8389 8.33889 17.9647 8.94515 18.2107 9.51709C18.4566 10.089 18.7998 10.5866 19.2287 11.0156C19.6577 11.4445 20.161 11.782 20.7329 12.0336C21.3049 12.2853 21.9226 12.4054 22.5803 12.4054C23.2323 12.4054 23.8443 12.2796 24.4219 12.0336C24.9996 11.7877 25.5029 11.4445 25.9261 11.0156C26.3494 10.5866 26.6868 10.089 26.9385 9.51709C27.1844 8.95087 27.3102 8.33889 27.3102 7.68688Z" fill="black"/>
<path d="M45.7555 13.5607C45.0634 14.1498 44.2913 14.6017 43.4391 14.9162C42.5869 15.2308 41.7004 15.3909 40.7853 15.3909C40.0818 15.3909 39.4012 15.2994 38.7435 15.1164C38.0915 14.9334 37.4795 14.676 36.9133 14.3386C36.347 14.0011 35.8266 13.6008 35.3576 13.1375C34.8886 12.6685 34.4882 12.1538 34.1565 11.5818C33.8248 11.0099 33.5674 10.3979 33.3844 9.74017C33.2014 9.08244 33.1099 8.40183 33.1099 7.69835C33.1099 6.99486 33.2014 6.31425 33.3844 5.66224C33.5674 5.01023 33.8248 4.40397 34.1565 3.83203C34.4882 3.26009 34.8886 2.73962 35.3576 2.27635C35.8266 1.81308 36.347 1.41272 36.9133 1.07528C37.4795 0.743551 38.0915 0.486178 38.7435 0.303157C39.3955 0.120136 40.0761 0.0286255 40.7853 0.0286255C41.7061 0.0286255 42.5926 0.188769 43.4391 0.503336C44.297 0.806464 45.0634 1.2583 45.7555 1.8474L44.1998 4.44401C43.748 3.98645 43.2332 3.63185 42.6441 3.36876C42.055 3.11138 41.4373 2.97984 40.7853 2.97984C40.1333 2.97984 39.527 3.10566 38.9551 3.3516C38.3832 3.59753 37.8856 3.9407 37.4566 4.36393C37.0277 4.78717 36.6902 5.28476 36.4386 5.8567C36.1869 6.42864 36.0668 7.04061 36.0668 7.68691C36.0668 8.34464 36.1926 8.96233 36.4386 9.53428C36.6902 10.1062 37.0277 10.6095 37.4566 11.0385C37.8856 11.4674 38.3832 11.8049 38.9551 12.0565C39.527 12.3082 40.139 12.4283 40.7853 12.4283C41.1571 12.4283 41.5231 12.3825 41.8777 12.291C42.2323 12.1995 42.564 12.0794 42.8843 11.9193V7.68691H45.7555V13.5607Z" fill="black"/>
<path d="M64.3321 7.68688C64.3321 8.39036 64.2406 9.07097 64.0576 9.72871C63.8746 10.3807 63.6172 10.9927 63.2855 11.5646C62.9537 12.1366 62.5534 12.657 62.0844 13.126C61.6154 13.595 61.0949 14.0011 60.5287 14.3328C59.9625 14.6646 59.3505 14.9276 58.6928 15.1107C58.0351 15.2937 57.3544 15.3852 56.651 15.3852C55.9475 15.3852 55.2669 15.2937 54.6091 15.1107C53.9571 14.9276 53.3451 14.6703 52.7732 14.3328C52.2013 13.9954 51.6808 13.595 51.2118 13.126C50.7428 12.657 50.3367 12.1366 50.005 11.5646C49.6733 10.9927 49.4102 10.3807 49.2272 9.72871C49.0441 9.07669 48.9526 8.39608 48.9526 7.68688C48.9526 6.97767 49.0441 6.29706 49.2272 5.64505C49.4102 4.99304 49.6676 4.37534 50.005 3.80912C50.3425 3.2429 50.7428 2.72244 51.2118 2.25345C51.6808 1.78445 52.2013 1.3841 52.7732 1.05237C53.3451 0.720645 53.9571 0.463272 54.6091 0.280251C55.2611 0.0972299 55.936 0 56.6395 0C57.343 0 58.0293 0.0915105 58.6813 0.274531C59.3391 0.457552 59.951 0.714925 60.5173 1.04665C61.0835 1.37838 61.604 1.77873 62.0729 2.24773C62.5419 2.71672 62.9423 3.23718 63.274 3.8034C63.6057 4.36962 63.8631 4.9816 64.0461 5.63933C64.2406 6.30278 64.3321 6.98339 64.3321 7.68688ZM61.3752 7.68688C61.3752 7.03487 61.2494 6.42289 61.0034 5.84523C60.7518 5.26757 60.4143 4.76426 59.9911 4.34103C59.5679 3.91779 59.0645 3.58035 58.4869 3.32869C57.9092 3.07704 57.2972 2.95693 56.6452 2.95693C55.9875 2.95693 55.3698 3.08276 54.7979 3.32869C54.2259 3.58035 53.7226 3.91779 53.2937 4.34103C52.8647 4.76426 52.5273 5.26757 52.2756 5.84523C52.024 6.42289 51.9039 7.03487 51.9039 7.68688C51.9039 8.33889 52.0297 8.94515 52.2756 9.51709C52.5215 10.089 52.8647 10.5866 53.2937 11.0156C53.7226 11.4445 54.2259 11.782 54.7979 12.0336C55.3698 12.2853 55.9875 12.4054 56.6452 12.4054C57.2972 12.4054 57.9092 12.2796 58.4869 12.0336C59.0645 11.7877 59.5679 11.4445 59.9911 11.0156C60.4143 10.5866 60.7518 10.089 61.0034 9.51709C61.2494 8.95087 61.3752 8.33889 61.3752 7.68688Z" fill="black"/>
<path d="M7.44094 38.4458H4.47257V26.5437H0V23.5639H11.9021V26.5437H7.44094V38.4458Z" fill="black"/>
<path d="M29.2891 31.0677C29.2891 31.7712 29.1976 32.4518 29.0146 33.1096C28.8316 33.7616 28.5742 34.3735 28.2425 34.9455C27.9108 35.5174 27.5104 36.0379 27.0414 36.5069C26.5724 36.9759 26.052 37.3819 25.4857 37.7137C24.9195 38.0511 24.3075 38.3085 23.6498 38.4915C22.9921 38.6745 22.3115 38.766 21.608 38.766C20.9045 38.766 20.2239 38.6745 19.5662 38.4915C18.9141 38.3085 18.3022 38.0511 17.7302 37.7137C17.1583 37.3762 16.6378 36.9759 16.1688 36.5069C15.6998 36.0379 15.2938 35.5174 14.962 34.9455C14.6246 34.3735 14.3672 33.7616 14.1842 33.1096C14.0012 32.4575 13.9097 31.7769 13.9097 31.0677C13.9097 30.3642 14.0012 29.6779 14.1842 29.0259C14.3672 28.3682 14.6246 27.7562 14.962 27.19C15.2995 26.6237 15.6998 26.1033 16.1688 25.6343C16.6378 25.1653 17.1583 24.7649 17.7302 24.4332C18.3022 24.1015 18.9141 23.8441 19.5662 23.6611C20.2182 23.4781 20.8988 23.3866 21.608 23.3866C22.3115 23.3866 22.9978 23.4781 23.6498 23.6611C24.3075 23.8441 24.9195 24.1015 25.4857 24.4332C26.052 24.7649 26.5724 25.1653 27.0414 25.6343C27.5104 26.1033 27.9108 26.6237 28.2425 27.19C28.5742 27.7562 28.8316 28.3682 29.0146 29.0259C29.1976 29.6779 29.2891 30.3585 29.2891 31.0677ZM26.3322 31.0677C26.3322 30.4157 26.2064 29.8037 25.9605 29.2261C25.7088 28.6484 25.3714 28.1451 24.9481 27.7219C24.5249 27.2986 24.0216 26.9612 23.4439 26.7095C22.8663 26.4579 22.2543 26.3378 21.6023 26.3378C20.9445 26.3378 20.3268 26.4636 19.7549 26.7095C19.183 26.9612 18.6797 27.2986 18.2507 27.7219C17.8217 28.1451 17.4843 28.6484 17.2326 29.2261C16.981 29.8037 16.8609 30.4157 16.8609 31.0677C16.8609 31.7197 16.9867 32.326 17.2326 32.8979C17.4843 33.4699 17.8217 33.9675 18.2507 34.3964C18.6797 34.8254 19.183 35.1628 19.7549 35.4145C20.3268 35.6661 20.9445 35.7862 21.6023 35.7862C22.2543 35.7862 22.8663 35.6604 23.4439 35.4145C24.0216 35.1628 24.5249 34.8254 24.9481 34.3964C25.3714 33.9675 25.7088 33.4699 25.9605 32.8979C26.2121 32.326 26.3322 31.714 26.3322 31.0677Z" fill="black"/>
<path d="M44.8228 36.9188C44.1308 37.5136 43.3587 37.9712 42.5008 38.2857C41.6429 38.6003 40.7563 38.7604 39.8355 38.7604C39.132 38.7604 38.4514 38.6689 37.7937 38.4859C37.1417 38.3029 36.5297 38.0455 35.9578 37.7081C35.3858 37.3706 34.8654 36.9703 34.3964 36.5013C33.9274 36.0323 33.5213 35.5118 33.1896 34.9399C32.8521 34.3679 32.5948 33.756 32.4117 33.104C32.2287 32.4519 32.1372 31.7713 32.1372 31.0621C32.1372 30.3586 32.2287 29.6723 32.4117 29.0203C32.5948 28.3626 32.8521 27.7506 33.1896 27.1787C33.527 26.6067 33.9274 26.0862 34.3964 25.6173C34.8654 25.1483 35.3858 24.7422 35.9578 24.4105C36.5297 24.073 37.1417 23.8156 37.7937 23.6326C38.4457 23.4496 39.1263 23.3581 39.8355 23.3581C40.7563 23.3581 41.6429 23.5182 42.5008 23.8328C43.3587 24.1474 44.1308 24.6049 44.8228 25.2055L43.2443 27.8021C42.8096 27.3331 42.2949 26.9728 41.7001 26.7154C41.1052 26.4637 40.4818 26.3379 39.8298 26.3379C39.1721 26.3379 38.5544 26.4637 37.9824 26.7097C37.4105 26.9613 36.9072 27.2988 36.4782 27.722C36.0493 28.1452 35.7118 28.6485 35.4602 29.2262C35.2085 29.8039 35.0884 30.4158 35.0884 31.0678C35.0884 31.7199 35.2142 32.3261 35.4602 32.8981C35.7118 33.47 36.0493 33.9676 36.4782 34.3965C36.9072 34.8255 37.4105 35.1629 37.9824 35.4146C38.5544 35.6662 39.1721 35.7864 39.8298 35.7864C40.4818 35.7864 41.1052 35.6605 41.7001 35.4089C42.2949 35.1572 42.8096 34.7969 43.2443 34.3222L44.8228 36.9188Z" fill="black"/>
<path d="M51.2235 38.4458H48.2437V23.5639H51.2235V29.5178H57.1716V23.5639H60.1514V38.4458H57.1716V32.4976H51.2235V38.4458Z" fill="black"/>
<path d="M67.5863 38.4458H64.6064V23.5639H67.5863V31.0048L73.1284 23.5639H76.5085L71.8072 29.8438L76.5085 38.4458H73.1284L69.8569 32.429L67.5863 35.4717V38.4458Z" fill="black"/>
<path d="M82.5711 38.4458H79.5913V23.5639H82.5711V38.4458Z" fill="black"/>
<defs>
<linearGradient id="paint0_linear" x1="-8.62873" y1="66.1102" x2="59.3181" y2="19.7021" gradientUnits="userSpaceOnUse">
<stop stop-color="#E8427D"/>
<stop offset="0.1587" stop-color="#F28354"/>
<stop offset="0.2966" stop-color="#F9B434"/>
<stop offset="0.4011" stop-color="#FDD221"/>
<stop offset="0.46" stop-color="#FFDD1A"/>
</linearGradient>
<linearGradient id="paint1_linear" x1="2.34125" y1="71.4928" x2="67.5687" y2="26.942" gradientUnits="userSpaceOnUse">
<stop stop-color="#E8427D"/>
<stop offset="0.1587" stop-color="#F28354"/>
<stop offset="0.2966" stop-color="#F9B434"/>
<stop offset="0.4011" stop-color="#FDD221"/>
<stop offset="0.46" stop-color="#FFDD1A"/>
</linearGradient>
<linearGradient id="paint2_linear" x1="-25.338" y1="76.218" x2="20.5001" y2="52.1612" gradientUnits="userSpaceOnUse">
<stop stop-color="#E8427D"/>
<stop offset="1" stop-color="#FFDD1A"/>
</linearGradient>
<linearGradient id="paint3_linear" x1="27.5971" y1="61.5048" x2="73.4352" y2="37.448" gradientUnits="userSpaceOnUse">
<stop offset="0.0865" stop-color="#E8427D"/>
<stop offset="0.5983" stop-color="#FFDD1A"/>
</linearGradient>
<linearGradient id="paint4_linear" x1="29.7254" y1="68.4155" x2="75.5635" y2="44.3586" gradientUnits="userSpaceOnUse">
<stop stop-color="#E8427D"/>
<stop offset="1" stop-color="#FFDD1A"/>
</linearGradient>
<linearGradient id="paint5_linear" x1="31.7551" y1="77.9646" x2="77.5932" y2="53.9078" gradientUnits="userSpaceOnUse">
<stop stop-color="#E8427D"/>
<stop offset="1" stop-color="#FFDD1A"/>
</linearGradient>
</defs>
</svg>
